{"title":"[IFA1] Hayate the Combat Butler Season 3 [Ep 01] Dual Animax Dub","uid":8935184,"size":139495718,"categoryP":"video","categoryS":"tv_shows","magnet":"?xt=urn:btih:e3d3c501de6790236ede401dfd9d3875c9a6cdc9&amp;dn=%5BIFA1%5D+Hayate+the+Combat+Butler+Season+3+%5BEp+01%5D+Dual+Animax+Dub&amp;tr=udp%3A%2F%2Ftracker.openbittorrent.com%3A80&amp;tr=udp%3A%2F%2Fopen.demonii.com%3A1337&amp;tr=udp%3A%2F%2Ftracker.coppersurfer.tk%3A6969&amp;tr=udp%3A%2F%2Fexodus.desync.com%3A6969","seeders":1,"leechers":0,"uploader":"IFA1","files":2,"time":1379546010,"description":"Hayate the Combat Butler: Can't Take My Eyes Off You (English Dub)\n\nAlternate Title: Hayate no Gotoku! Can't Take My Eyes Off You\n\n[quote=&quot;&quot;&gt;Plot Summary: Taking place one month after the events that occurred in the movie Heaven is a Place on Earth. Living at the Sanzenin Mansion once again, Nagi returns to her old ways of life, until she receives word from American authorities informing her that she has a week to pick up her late father's belongings that was indefinitely delayed due to various circumstances. After receiving news of her father whom she doesn't remember, Nagi then meets a mysterious girl (with a hidden agenda) claiming to be Nagi's little sister.\n\nThe series tells a new story that is original to the anime and not directly based on the manga. The main author of the original series Kenjiro Hata personally created the original concept for the story of this anime.\n\n\nInfo :\n\nType: TV Series\nEpisodes: 12\nAverage File Size: ~130 MB\nVideo: h264/AVC\nContainer: MKV\nAudio 1: English (Animax)\nAudio 2: Japanese\nAnimax Audio recorded by : fullmetal1\nAnimax Audio timed by : fullmetal1 &amp; Inuyashakagomefa1\n\nFan-Sub(used for adding Animax Audio): Hien\n\nSource: AnimeIndia.com\n\nSubmitter's Note: If you liked the show then please seed as much as possible to keep this torrent alive because I am not sure if I can keep it alive by myself. Consider buying the official DVDs when they are available. Not for sale or rent.\n\n\nMediaInfo:\n\nGeneral\nUnique ID : 233426934280345848656391180011635097116 (0xAF9C646ADEA7D039B74143A97FFE3E1C)\nComplete name : D:[IFA1] Hayate the Combat Butler Season 3 [Ep 01] [m480p] [Dual Audio] [Animax Dub][IFA1_fullmetal1]_HnG-S3_Ep-01_DA.mkv\nFormat : Matroska\nFormat version : Version 4 / Version 2\nFile size : 133 MiB\nDuration : 23mn 40s\nOverall bit rate mode : Variable\nOverall bit rate : 786 Kbps\nMovie name : AnimeIndia.com/AnimeAnimaxDub.blogspot.in\nEncoded date : UTC 2010-02-22 21:41:31\nWriting application : mkvmerge v5.9.0 ('On The Loose') built on Dec 9 2012 15:37:01\nWriting library : libebml v1.3.0 + libmatroska v1.4.0\nAttachment : Yes / Yes / Yes / Yes / Yes / Yes / Yes / Yes / Yes / Yes\n\nVideo\nID : 1\nFormat : AVC\nFormat/Info : Advanced Video Codec\nFormat profile : &lt;a class=&quot;__cf_email__&quot; href=&quot;/cdn-cgi/l/email-protection&quot; data-cfemail=&quot;ade5c4cac5ede199839d&quot;&gt;[email&amp;#160;protected]&lt;/a&gt;&lt;script cf-hash='f9e31' type=&quot;text/javascript&quot;&gt;\n/* &lt;![CDATA[ */!function(){try{var t=&quot;currentScript&quot;in document?document.currentScript:function(){for(var t=document.getElementsByTagName(&quot;script&quot;),e=t.length;e--;)if(t[e].getAttribute(&quot;cf-hash&quot;))return t[e]}();if(t&amp;&amp;t.previousSibling){var e,r,n,i,c=t.previousSibling,a=c.getAttribute(&quot;data-cfemail&quot;);if(a){for(e=&quot;&quot;,r=parseInt(a.substr(0,2),16),n=2;a.length-n;n+=2)i=parseInt(a.substr(n,2),16)^r,e+=String.fromCharCode(i);e=document.createTextNode(e),c.parentNode.replaceChild(e,c)}}}catch(u){}}();/* ]]&gt; */&lt;/script&gt;\nFormat settings, CABAC : Yes\nFormat settings, ReFrames : 6 frames\nMuxing mode : Header stripping\nCodec ID : V_MPEG4/ISO/AVC\nBit rate : 577 Kbps\nWidth : 1 280 pixels\nHeight : 720 pixels\nDisplay aspect ratio : 16:9\nFrame rate mode : Variable\nOriginal frame rate : 23.976 fps\nColor space : YUV\nChroma subsampling : 4:2:0\nBit depth : 8 bits\nScan type : Progressive\nWriting library : x264 core 125 r2200 999b753\nEncoding settings : cabac=1 // deblock=1:1:1 / analyse=0x3:0x113 / me=hex / subme=7 / psy=1 / psy_rd=0.40:0.00 // me_range=16 / chroma_me=1 / trellis=1 / 8x8dct=1 / cqm=0 / deadzone=21,11 / fast_pskip=0 / chroma_qp_offset=-2 / threads=3 / lookahead_threads=1 / sliced_threads=0 / nr=0 / decimate=1 / interlaced=0 / bluray_compat=0 / constrained_intra=0 / bframes=5 / b_pyramid=2 / b_adapt=1 / b_bias=0 / direct=1 / weightb=1 / open_gop=0 / weightp=2 / keyint=240 / keyint_min=23 / scenecut=40 / intra_refresh=0 / rc_lookahead=40 / rc=crf / mbtree=1 / crf=26.0 / qcomp=0.60 / qpmin=0 / qpmax=69 / qpstep=4 / ip_ratio=1.40 / aq=1:0.60\nLanguage : English\nDefault : Yes\nForced : No\n\nAudio #1\nID : 2\nFormat : Vorbis\nFormat settings, Floor : 1\nCodec ID : A_VORBIS\nDuration : 23mn 40s\nBit rate mode : Variable\nBit rate : 128 Kbps\nChannel(s) : 2 channels\nSampling rate : 44.1 KHz\nCompression mode : Lossy\nStream size : 21.7 MiB (16%)\nTitle : hs3e1\nWriting library : libVorbis 1.0 (UTC 2002-07-17)\nLanguage : English\nDefault : Yes\nForced : No\n\nAudio #2\nID : 3\nFormat : Vorbis\nFormat settings, Floor : 1\nCodec ID : A_VORBIS\nDuration : 23mn 40s\nBit rate mode : Variable\nBit rate : 65.0 Kbps\nChannel(s) : 2 channels\nSampling rate : 48.0 KHz\nCompression mode : Lossy\nStream size : 11.0 MiB (8%)\nWriting library : libVorbis (Omnipresent) (20120203 (Omnipresent))\nLanguage : Japanese\nDefault : No\nForced : No\n\nText\nID : 4\nFormat : ASS\nCodec ID : S_TEXT/ASS\nCodec ID/Info : Advanced Sub Station Alpha\nCompression mode : Lossless\nLanguage : English\nDefault : Yes\nForced : No\n\n\n\n","torrent":{"xt":"urn:btih:e3d3c501de6790236ede401dfd9d3875c9a6cdc9","amp;dn":"%5BIFA1%5D+Hayate+the+Combat+Butler+Season+3+%5BEp+01%5D+Dual+Animax+Dub","amp;tr":["udp%3A%2F%2Ftracker.openbittorrent.com%3A80","udp%3A%2F%2Fopen.demonii.com%3A1337","udp%3A%2F%2Ftracker.coppersurfer.tk%3A6969","udp%3A%2F%2Fexodus.desync.com%3A6969"],"infoHash":"e3d3c501de6790236ede401dfd9d3875c9a6cdc9","infoHashBuffer":{"type":"Buffer","data":[227,211,197,1,222,103,144,35,110,222,64,29,253,157,56,117,201,166,205,201]},"announce":[],"urlList":[]}}